<?xml version="1.0" encoding="UTF-8" standalone="no"?>
<svg
   xmlns:dc="http://purl.org/dc/elements/1.1/"
   xmlns:cc="http://creativecommons.org/ns#"
   xmlns:rdf="http://www.w3.org/1999/02/22-rdf-syntax-ns#"
   xmlns:svg="http://www.w3.org/2000/svg"
   xmlns="http://www.w3.org/2000/svg"
   xmlns:sodipodi="http://sodipodi.sourceforge.net/DTD/sodipodi-0.dtd"
   xmlns:inkscape="http://www.inkscape.org/namespaces/inkscape"
   sodipodi:docname="bg.svg"
   id="svg845"
   version="1.1"
   viewBox="0 0 1440 320"
   inkscape:version="1.0.2-2 (e86c870879, 2021-01-15)">
  <metadata
     id="metadata851">
    <rdf:RDF>
      <cc:Work
         rdf:about="">
        <dc:format>image/svg+xml</dc:format>
        <dc:type
           rdf:resource="http://purl.org/dc/dcmitype/StillImage" />
      </cc:Work>
    </rdf:RDF>
  </metadata>
  <defs
     id="defs849" />
  <sodipodi:namedview
     pagecolor="#ffffff"
     bordercolor="#666666"
     borderopacity="1"
     objecttolerance="10"
     gridtolerance="10"
     guidetolerance="10"
     inkscape:pageopacity="0"
     inkscape:pageshadow="2"
     inkscape:window-width="1920"
     inkscape:window-height="1057"
     id="namedview847"
     showgrid="false"
     inkscape:zoom="0.7483547"
     inkscape:cx="688.54001"
     inkscape:cy="-5.3718158"
     inkscape:window-x="-8"
     inkscape:window-y="-8"
     inkscape:window-maximized="1"
     inkscape:current-layer="svg845"
     inkscape:document-rotation="0" />
  <path
     fill="#83a6c4"
     fill-opacity="1"
     d="M0,96L48,128C96,160,192,224,288,256C384,288,480,288,576,250.7C672,213,768,139,864,128C960,117,1056,171,1152,176C1248,181,1344,139,1392,117.3L1440,96L1440,320L1392,320C1344,320,1248,320,1152,320C1056,320,960,320,864,320C768,320,672,320,576,320C480,320,384,320,288,320C192,320,96,320,48,320L0,320Z"
     id="path843" />
  <path
     style="fill:#85a8d1;stroke-width:0.167;fill-opacity:1;stroke-miterlimit:4;stroke-dasharray:none"
     d="m 152.49255,256.76262 v -63.23797 l 0.96044,0.54358 c 49.85174,28.21472 94.7998,48.87171 135.83966,62.42846 37.66957,12.44344 75.0525,19.84413 111.91217,22.15524 9.1358,0.57281 13.0061,0.67566 25.38903,0.67468 12.37741,-0.001 15.98394,-0.0983 24.97145,-0.67382 17.58388,-1.12598 34.62548,-3.32677 51.78026,-6.68699 3.12703,-0.61251 10.63998,-2.19228 11.14946,-2.34442 0.27749,-0.0829 0.29231,1.19239 0.29231,25.14596 v 25.23325 H 333.63994 152.49255 Z"
     id="path830" />
  <path
     style="fill:#85a8d1;fill-opacity:1;stroke-width:0.223156;stroke-miterlimit:4;stroke-dasharray:none"
     d="m 0.3982122,208.35168 c 0,-88.44137 0.33932893,-110.782709 1.6703309,-109.974185 0.918682,0.558058 19.5163629,12.859765 41.3281799,27.337135 39.693607,26.34621 73.775587,47.94566 96.975217,61.45802 l 12.36045,7.1992 v 62.48434 62.48433 H 76.565302 0.3982122 Z"
     id="path831" />
  <path
     style="fill:#85a8d1;fill-opacity:1;stroke-width:0.223156;stroke-miterlimit:4;stroke-dasharray:none"
     d="m 514.86014,294.82122 v -24.51928 l 14.36484,-3.7233 c 19.47994,-5.04909 40.63995,-12.44549 63.14941,-22.07361 22.95549,-9.8189 35.6831,-16.15174 95.7029,-47.61853 64.0565,-33.58313 93.39516,-46.87321 126.10615,-57.12466 33.66583,-10.55068 64.03276,-14.2945 95.31734,-11.75129 33.6091,2.73219 53.28429,6.80135 127.17072,26.30111 69.1574,18.2517 91.3446,21.98177 130.9939,22.02244 35.8282,0.0368 65.8126,-3.98777 104.1887,-13.98426 36.875,-9.60547 70.1392,-22.05404 129.9731,-48.6402 20.039,-8.90399 36.7256,-16.189071 37.0813,-16.189071 0.3558,0 0.6468,49.909491 0.6468,110.909971 V 319.34052 H 977.20774 514.86014 Z"
     id="path833" />
</svg>
