<?xml version="1.0" standalone="no"?>
<svg xmlns:xlink="http://www.w3.org/1999/xlink" id="wave" style="transform:rotate(0deg); transition: 0.3s" viewBox="0 0 1440 490" version="1.1" xmlns="http://www.w3.org/2000/svg"><defs><linearGradient id="sw-gradient-0" x1="0" x2="0" y1="1" y2="0"><stop stop-color="rgba(243, 106, 62, 1)" offset="0%"/><stop stop-color="rgba(255, 179, 11, 1)" offset="100%"/></linearGradient></defs><path style="transform:translate(0, 0px); opacity:1" fill="url(#sw-gradient-0)" d="M0,245L26.7,212.3C53.3,180,107,114,160,130.7C213.3,147,267,245,320,310.3C373.3,376,427,408,480,359.3C533.3,310,587,180,640,130.7C693.3,82,747,114,800,106.2C853.3,98,907,49,960,89.8C1013.3,131,1067,261,1120,261.3C1173.3,261,1227,131,1280,106.2C1333.3,82,1387,163,1440,196C1493.3,229,1547,212,1600,179.7C1653.3,147,1707,98,1760,81.7C1813.3,65,1867,82,1920,89.8C1973.3,98,2027,98,2080,106.2C2133.3,114,2187,131,2240,187.8C2293.3,245,2347,343,2400,326.7C2453.3,310,2507,180,2560,179.7C2613.3,180,2667,310,2720,302.2C2773.3,294,2827,147,2880,122.5C2933.3,98,2987,196,3040,204.2C3093.3,212,3147,131,3200,130.7C3253.3,131,3307,212,3360,245C3413.3,278,3467,261,3520,236.8C3573.3,212,3627,180,3680,204.2C3733.3,229,3787,310,3813,351.2L3840,392L3840,490L3813.3,490C3786.7,490,3733,490,3680,490C3626.7,490,3573,490,3520,490C3466.7,490,3413,490,3360,490C3306.7,490,3253,490,3200,490C3146.7,490,3093,490,3040,490C2986.7,490,2933,490,2880,490C2826.7,490,2773,490,2720,490C2666.7,490,2613,490,2560,490C2506.7,490,2453,490,2400,490C2346.7,490,2293,490,2240,490C2186.7,490,2133,490,2080,490C2026.7,490,1973,490,1920,490C1866.7,490,1813,490,1760,490C1706.7,490,1653,490,1600,490C1546.7,490,1493,490,1440,490C1386.7,490,1333,490,1280,490C1226.7,490,1173,490,1120,490C1066.7,490,1013,490,960,490C906.7,490,853,490,800,490C746.7,490,693,490,640,490C586.7,490,533,490,480,490C426.7,490,373,490,320,490C266.7,490,213,490,160,490C106.7,490,53,490,27,490L0,490Z"/></svg>